# xmcd
#
# Track frame offsets:
#	150
#	17335
#	33161
#	49222
#	65772
#	87868
#	100328
#	117553
#	134464
#	150717
#	166325
#	178904
#	196741
#
# Disc length: 2748 seconds
#
# Revision: 0
# Processed by: cddbd v1.5.1PL0 Copyright (c) Steve Scherf et al.
# Submitted via: audiograbber 1.82.02
#
DISCID=ac0aba0d
DTITLE=Nic Dalton with The Gloomchasers Orchestra - Home Of The Big Regret
DYEAR=2005
DGENRE=Folk
TTITLE0=There's Nobody Coming Over
TTITLE1=A Century Too Late
TTITLE2=Deepwater
TTITLE3=Three Strikes
TTITLE4=All My Love
TTITLE5=How Do You Feel?
TTITLE6=Play All Night
TTITLE7=I Should've Said, You Should've Asked
TTITLE8=Two Empty Beds
TTITLE9=There She Is
TTITLE10=Somewhere Else
TTITLE11=Heaven Can Wait Champion Of The World
TTITLE12=There's No One Waiting In The Wings
EXTD=
EXTT0=
EXTT1=
EXTT2=
EXTT3=
EXTT4=
EXTT5=
EXTT6=
EXTT7=
EXTT8=
EXTT9=
EXTT10=
EXTT11=
EXTT12=
PLAYORDER=
